<svg width="82" height="82" viewBox="0 0 82 82" fill="none" xmlns="http://www.w3.org/2000/svg">
<g clip-path="url(#clip0_39_156)">
<path d="M75.1667 23.9166H51.25V17.0833H75.1667V23.9166ZM81.0638 58.0833C79.5537 62.5147 74.1314 68.3333 63.6354 68.3333C53.1326 68.3333 44.6251 62.4258 44.6251 48.9437C44.6251 35.5845 52.5688 28.717 63.3006 28.717C73.8308 28.717 80.2609 34.8055 81.6652 43.8392C81.9317 45.568 82.0376 47.8982 81.9898 51.1508H54.5642C55.0083 62.1218 66.4644 62.4668 70.2398 58.0833H81.0638ZM54.8033 44.4166H71.7671C71.4083 39.131 67.8858 36.835 63.304 36.835C58.2952 36.835 55.5243 39.459 54.8033 44.4166ZM22.0922 68.2923H0V17.155H23.7561C42.4658 17.4318 42.8211 35.7553 33.0494 40.7505C44.8745 45.0555 45.2708 68.2923 22.0922 68.2923ZM10.25 37.5833H22.4953C31.0643 37.5833 32.4242 27.3333 21.4293 27.3333H10.25V37.5833ZM21.8359 47.8333H10.25V58.1379H21.6651C32.103 58.1379 31.4641 47.8333 21.8359 47.8333Z" fill="#0C60FF"/>
</g>
<defs>
<clipPath id="clip0_39_156">
<rect width="82" height="82" fill="white"/>
</clipPath>
</defs>
</svg>
