<svg width="90" height="90" viewBox="0 0 90 90" fill="none" xmlns="http://www.w3.org/2000/svg">
<g clip-path="url(#clip0_25_37)">
<path d="M0 45C0 36.84 2.01006 29.31 6.03 22.41C10.05 15.51 15.5101 10.05 22.41 6.03C29.31 2.00997 36.8401 0 45 0C53.16 0 60.6901 2.00997 67.59 6.03C74.49 10.05 79.9501 15.51 83.97 22.41C87.99 29.31 90 36.84 90 45C90 53.16 87.99 60.69 83.97 67.59C79.9501 74.49 74.49 79.95 67.59 83.97C60.6901 87.99 53.16 90 45 90C36.8401 90 29.31 87.99 22.41 83.97C15.5101 79.95 10.05 74.49 6.03 67.59C2.01006 60.69 0 53.16 0 45ZM7.47 45C7.47 54.36 10.62 62.61 16.92 69.75C19.8 64.11 24.36 58.74 30.6 53.64C36.8401 48.54 42.93 45.33 48.87 44.01C47.97 41.91 47.1001 40.02 46.26 38.34C35.9401 41.64 24.7801 43.29 12.78 43.29C10.44 43.29 8.70003 43.26 7.56 43.2C7.56 43.44 7.54506 43.74 7.515 44.1C7.48503 44.46 7.47 44.76 7.47 45ZM8.64 35.73C9.96003 35.85 11.9101 35.91 14.49 35.91C24.5101 35.91 34.02 34.56 43.02 31.86C38.4601 23.76 33.45 17.01 27.99 11.61C23.2501 14.01 19.185 17.34 15.795 21.6C12.4051 25.86 10.0201 30.57 8.64 35.73ZM22.05 74.61C28.8301 79.89 36.4801 82.53 45 82.53C49.4401 82.53 53.8501 81.69 58.23 80.01C57.03 69.75 54.69 59.82 51.21 50.22C45.69 51.42 40.1251 54.45 34.515 59.31C28.905 64.17 24.75 69.27 22.05 74.61ZM35.82 8.73C41.1 14.19 45.99 21 50.49 29.16C58.65 25.74 64.8 21.39 68.94 16.11C61.98 10.35 54 7.47 45 7.47C41.94 7.47 38.88 7.89003 35.82 8.73ZM53.73 35.55C54.63 37.47 55.6501 39.9 56.79 42.84C61.2301 42.42 66.06 42.21 71.28 42.21C75.0001 42.21 78.6901 42.3 82.35 42.48C81.87 34.32 78.93 27.06 73.53 20.7C69.63 26.52 63.0301 31.47 53.73 35.55ZM59.04 49.14C62.1 58.02 64.17 67.14 65.25 76.5C69.99 73.44 73.86 69.51 76.86 64.71C79.8601 59.91 81.6601 54.72 82.26 49.14C77.8801 48.84 73.89 48.69 70.29 48.69C66.9901 48.69 63.24 48.84 59.04 49.14Z" fill="#EA4C89"/>
</g>
<defs>
<clipPath id="clip0_25_37">
<rect width="90" height="90" fill="white"/>
</clipPath>
</defs>
</svg>
