<svg width="65" height="65" viewBox="0 0 65 65" fill="none" xmlns="http://www.w3.org/2000/svg">
<path d="M32.5 6.5C18.1415 6.5 6.5 18.1415 6.5 32.5C6.5 44.6832 14.8893 54.8773 26.1993 57.6983C26.078 57.3473 26 56.94 26 56.4352V51.9913C24.9448 51.9913 23.1768 51.9913 22.7327 51.9913C20.9538 51.9913 19.3722 51.2265 18.6052 49.8052C17.7537 48.2257 17.6063 45.8098 15.496 44.3322C14.8698 43.8403 15.3465 43.2792 16.068 43.355C17.4005 43.732 18.5055 44.6463 19.5455 46.0027C20.5812 47.3612 21.0687 47.6688 23.0035 47.6688C23.9417 47.6688 25.3457 47.6147 26.6673 47.4067C27.378 45.6018 28.6065 43.94 30.108 43.1557C21.45 42.2652 17.3182 37.9578 17.3182 32.11C17.3182 29.5923 18.3907 27.157 20.2128 25.1052C19.6148 23.0685 18.863 18.915 20.4425 17.3333C24.3382 17.3333 26.6933 19.8597 27.2588 20.5422C29.2002 19.877 31.3322 19.5 33.5725 19.5C35.8172 19.5 37.9578 19.877 39.9035 20.5465C40.4625 19.8683 42.8198 17.3333 46.7242 17.3333C48.3102 18.9172 47.5497 23.088 46.9452 25.1203C48.7565 27.1678 49.8225 29.5967 49.8225 32.11C49.8225 37.9535 45.6972 42.2587 37.0522 43.1535C39.4312 44.395 41.1667 47.8833 41.1667 50.5115V56.4352C41.1667 56.6605 41.1168 56.823 41.0908 57.0158C51.2222 53.4647 58.5 43.8447 58.5 32.5C58.5 18.1415 46.8585 6.5 32.5 6.5Z" fill="white"/>
</svg>
