<svg width="59" height="59" viewBox="0 0 59 59" fill="none" xmlns="http://www.w3.org/2000/svg">
<path d="M48.3802 4.72021H10.6202C7.36342 4.72021 4.72021 7.36342 4.72021 10.6202V48.3802C4.72021 51.637 7.36342 54.2802 10.6202 54.2802H48.3802C51.637 54.2802 54.2802 51.637 54.2802 48.3802V10.6202C54.2802 7.36342 51.637 4.72021 48.3802 4.72021ZM20.0602 23.6002V46.0202H12.9802V23.6002H20.0602ZM12.9802 17.0748C12.9802 15.4228 14.3962 14.1602 16.5202 14.1602C18.6442 14.1602 19.9776 15.4228 20.0602 17.0748C20.0602 18.7268 18.7386 20.0602 16.5202 20.0602C14.3962 20.0602 12.9802 18.7268 12.9802 17.0748ZM46.0202 46.0202H38.9402C38.9402 46.0202 38.9402 35.0934 38.9402 34.2202C38.9402 31.8602 37.7602 29.5002 34.8102 29.453H34.7158C31.8602 29.453 30.6802 31.8838 30.6802 34.2202C30.6802 35.294 30.6802 46.0202 30.6802 46.0202H23.6002V23.6002H30.6802V26.621C30.6802 26.621 32.9576 23.6002 37.536 23.6002C42.2206 23.6002 46.0202 26.8216 46.0202 33.347V46.0202Z" fill="white"/>
</svg>
