<svg width="52" height="43" viewBox="0 0 52 43" fill="none" xmlns="http://www.w3.org/2000/svg">
<path d="M52 5.08983C50.0861 5.95475 48.0302 6.5368 45.8722 6.79933C48.0762 5.45615 49.7661 3.32945 50.5621 0.793696C48.5021 2.03715 46.2182 2.94074 43.7863 3.42917C41.8404 1.31876 39.0685 0 36.0006 0C30.1088 0 25.333 4.8619 25.333 10.8553C25.333 11.706 25.429 12.5363 25.609 13.328C16.7434 12.8762 8.88366 8.5536 3.61986 1.98424C2.7039 3.58791 2.17792 5.45208 2.17792 7.44446C2.17792 11.2094 4.05984 14.5328 6.92173 16.4783C5.1738 16.4214 3.52786 15.9329 2.08992 15.1209C2.08992 15.1677 2.08992 15.2105 2.08992 15.2573C2.08992 20.5181 5.76578 24.9058 10.6476 25.9009C9.75362 26.1492 8.80966 26.2815 7.8357 26.2815C7.14972 26.2815 6.47975 26.2123 5.82978 26.0882C7.18772 30.4006 11.1276 33.5408 15.7954 33.6283C12.1455 36.5405 7.54571 38.2765 2.5459 38.2765C1.68594 38.2765 0.835968 38.2256 0 38.1239C4.72182 41.203 10.3276 43 16.3534 43C35.9766 43 46.7042 26.4586 46.7042 12.113C46.7042 11.6429 46.6942 11.1748 46.6742 10.7088C48.7601 9.17634 50.5701 7.26537 52 5.08983Z" fill="#F7F7F9"/>
</svg>
